/usr/bin/start-video-rec.sh: line 93: kill: (571) - No such process
ffmpeg version 2.8.17-0ubuntu0.1 Copyright (c) 2000-2020 the FFmpeg developers
  built with gcc 5.4.0 (Ubuntu 5.4.0-6ubuntu1~16.04.12) 20160609
  configuration: --prefix=/usr --extra-version=0ubuntu0.1 --build-suffix=-ffmpeg --toolchain=hardened --libdir=/usr/lib/x86_64-linux-gnu --incdir=/usr/include/x86_64-linux-gnu --cc=cc --cxx=g++ --enable-gpl --enable-shared --disable-stripping --disable-decoder=libopenjpeg --disable-decoder=libschroedinger --enable-avresample --enable-avisynth --enable-gnutls --enable-ladspa --enable-libass --enable-libbluray --enable-libbs2b --enable-libcaca --enable-libcdio --enable-libflite --enable-libfontconfig --enable-libfreetype --enable-libfribidi --enable-libgme --enable-libgsm --enable-libmodplug --enable-libmp3lame --enable-libopenjpeg --enable-libopus --enable-libpulse --enable-librtmp --enable-libschroedinger --enable-libshine --enable-libsnappy --enable-libsoxr --enable-libspeex --enable-libssh --enable-libtheora --enable-libtwolame --enable-libvorbis --enable-libvpx --enable-libwavpack --enable-libwebp --enable-libx265 --enable-libxvid --enable-libzvbi --enable-openal --enable-opengl --enable-x11grab --enable-libdc1394 --enable-libiec61883 --enable-libzmq --enable-frei0r --enable-libx264 --enable-libopencv
  libavutil      54. 31.100 / 54. 31.100
  libavcodec     56. 60.100 / 56. 60.100
  libavformat    56. 40.101 / 56. 40.101
  libavdevice    56.  4.100 / 56.  4.100
  libavfilter     5. 40.101 /  5. 40.101
  libavresample   2.  1.  0 /  2.  1.  0
  libswscale      3.  1.101 /  3.  1.101
  libswresample   1.  2.101 /  1.  2.101
  libpostproc    53.  3.100 / 53.  3.100
Input #0, matroska,webm, from '/home/seluser/videos/vid_chrome_or_firefox_40000.mkv':
  Metadata:
    ENCODER         : Lavf56.40.101
  Duration: 00:01:04.90, start: 0.000000, bitrate: 171 kb/s
    Stream #0:0: Video: h264 (Constrained Baseline), yuv420p, 1366x768, SAR 1:1 DAR 683:384, 10 fps, 10 tbr, 1k tbn, 20 tbc (default)
    Metadata:
      ENCODER         : Lavc56.60.100 libx264
      DURATION        : 00:01:04.900000000
[libx264 @ 0x9e2760] using SAR=1/1
[libx264 @ 0x9e2760] using cpu capabilities: MMX2 SSE2Fast SSSE3 SSE4.2 AVX FMA3 AVX2 LZCNT BMI2
[libx264 @ 0x9e2760] profile Constrained Baseline, level 3.2
[libx264 @ 0x9e2760] 264 - core 148 r2643 5c65704 - H.264/MPEG-4 AVC codec - Copyleft 2003-2015 - http://www.videolan.org/x264.html - options: cabac=0 ref=1 deblock=0:0:0 analyse=0:0 me=dia subme=0 psy=1 psy_rd=1.00:0.00 mixed_ref=0 me_range=16 chroma_me=1 trellis=0 8x8dct=0 cqm=0 deadzone=21,11 fast_pskip=1 chroma_qp_offset=0 threads=3 lookahead_threads=1 sliced_threads=0 nr=0 decimate=1 interlaced=0 bluray_compat=0 constrained_intra=0 bframes=0 weightp=0 keyint=250 keyint_min=10 scenecut=0 intra_refresh=0 rc=crf mbtree=0 crf=23.0 qcomp=0.60 qpmin=0 qpmax=69 qpstep=4 ip_ratio=1.40 aq=0
Output #0, mp4, to '/home/seluser/videos/vid_chrome_or_firefox_40000.mp4':
  Metadata:
    encoder         : Lavf56.40.101
    Stream #0:0: Video: h264 (libx264) ([33][0][0][0] / 0x0021), yuv420p, 1366x768 [SAR 1:1 DAR 683:384], q=-1--1, 10 fps, 10240 tbn, 10 tbc (default)
    Metadata:
      DURATION        : 00:01:04.900000000
      encoder         : Lavc56.60.100 libx264
Stream mapping:
  Stream #0:0 -> #0:0 (h264 (native) -> h264 (libx264))
Press [q] to stop, [?] for help
frame=   53 fps=0.0 q=9.0 size=      58kB time=00:00:04.90 bitrate=  97.5kbits/s    
frame=   92 fps= 89 q=9.0 size=      67kB time=00:00:08.80 bitrate=  62.1kbits/s    
frame=  191 fps=124 q=9.0 size=     147kB time=00:00:18.70 bitrate=  64.4kbits/s    
frame=  284 fps=139 q=10.0 size=     516kB time=00:00:28.00 bitrate= 150.9kbits/s    
frame=  328 fps=126 q=15.0 size=     712kB time=00:00:32.40 bitrate= 180.1kbits/s    
frame=  356 fps=114 q=11.0 size=     830kB time=00:00:35.20 bitrate= 193.2kbits/s    
frame=  380 fps=104 q=9.0 size=     885kB time=00:00:37.60 bitrate= 192.8kbits/s    
frame=  402 fps= 97 q=9.0 size=     886kB time=00:00:39.80 bitrate= 182.4kbits/s    
frame=  434 fps= 93 q=9.0 size=     888kB time=00:00:43.00 bitrate= 169.1kbits/s    
frame=  459 fps= 89 q=9.0 size=     889kB time=00:00:45.50 bitrate= 160.1kbits/s    
frame=  487 fps= 86 q=10.0 size=     900kB time=00:00:48.30 bitrate= 152.6kbits/s    
frame=  506 fps= 82 q=14.0 size=    1065kB time=00:00:50.20 bitrate= 173.8kbits/s    
frame=  532 fps= 79 q=9.0 size=    1107kB time=00:00:52.80 bitrate= 171.7kbits/s    
frame=  556 fps= 77 q=9.0 size=    1311kB time=00:00:55.20 bitrate= 194.5kbits/s    
frame=  584 fps= 75 q=9.0 size=    1312kB time=00:00:58.00 bitrate= 185.3kbits/s    
frame=  609 fps= 74 q=9.0 size=    1314kB time=00:01:00.50 bitrate= 177.9kbits/s    
frame=  642 fps= 73 q=12.0 size=    1338kB time=00:01:03.80 bitrate= 171.8kbits/s    
frame=  649 fps= 72 q=-1.0 Lsize=    1363kB time=00:01:04.90 bitrate= 172.0kbits/s    
video:1359kB audio:0kB subtitle:0kB other streams:0kB global headers:0kB muxing overhead: 0.246943%
[libx264 @ 0x9e2760] frame I:3     Avg QP:11.67  size: 90457
[libx264 @ 0x9e2760] frame P:646   Avg QP: 9.98  size:  1734
[libx264 @ 0x9e2760] mb I  I16..4: 100.0%  0.0%  0.0%
[libx264 @ 0x9e2760] mb P  I16..4:  1.4%  0.0%  0.0%  P16..4:  1.7%  0.0%  0.0%  0.0%  0.0%    skip:96.9%
[libx264 @ 0x9e2760] coded y,uvDC,uvAC intra: 14.6% 9.2% 8.5% inter: 0.7% 0.8% 0.4%
[libx264 @ 0x9e2760] i16 v,h,dc,p: 72% 26%  1%  1%
[libx264 @ 0x9e2760] i8c dc,h,v,p: 81% 16%  3%  1%
[libx264 @ 0x9e2760] kb/s:171.49
